<?xml version="1.0" encoding="utf-8"?>
<!-- Generator: Adobe Illustrator 23.0.2, SVG Export Plug-In . SVG Version: 6.00 Build 0)  -->
<svg version="1.1" id="レイヤー_1" xmlns="http://www.w3.org/2000/svg" xmlns:xlink="http://www.w3.org/1999/xlink" x="0px"
	 y="0px" width="321px" height="100px" viewBox="0 0 321 100" style="enable-background:new 0 0 321 100;" xml:space="preserve">
<style type="text/css">
	.st0{fill:#FF7070;}
	.st1{fill:#4D4D4D;}
	.st2{fill:#005BAB;}
</style>
<g>
	<path class="st0" d="M59.7,44.6L59.7,44.6l-6.6,11.3V56c-0.3,0.4-0.8,0.7-1.3,0.7c-0.6,0-1.1-0.3-1.4-1v-0.1l-6.7-19.6V36
		c-0.1-0.2-0.1-0.3-0.1-0.5c0-0.9,0.7-1.6,1.6-1.6c0.1,0,0.2,0,0.3,0h0.1l10.3,2h0.1c0.3,0.1,0.7,0.3,0.9,0.6v0.1l2.8,4.8l0.1,0.1
		c0.3,0.4,0.3,1,0.3,1.5C60,43.5,59.9,44.1,59.7,44.6z M51.6,32c-0.1,0-0.2,0-0.3,0h-0.1l-20.1-3.9h-0.1c-0.7-0.2-1.1-0.8-1.1-1.5
		c0-0.4,0.2-0.8,0.4-1v-0.1l6.9-8v-0.1c0.3-0.3,0.6-0.4,1-0.4c0,0,0,0,0.1,0c0.1,0,0,0,0.1,0h5.4H44H44c1,0,2,0.6,2.5,1.6l0.1,0.1
		L53,29.7v0.1c0.2,0.3,0.3,0.5,0.3,0.8C53,31.3,52.4,32,51.6,32z M31.3,19.6L17.8,35.2v0.1c-0.3,0.3-0.7,0.4-1,0.4
		c-0.6,0-1.1-0.3-1.4-1v-0.1l-3.5-10v-0.1c-0.2-0.2-0.2-0.3-0.2-0.5c0-0.3,0.1-0.6,0.3-0.8v-0.1l2.7-4.7l0.1-0.1
		c0.5-0.9,1.5-1.5,2.5-1.6h0.1h0.1h12.7c0,0,0,0,0.1,0c0,0,0,0,0.1,0c0.8,0,1.5,0.7,1.5,1.6C31.8,18.9,31.6,19.2,31.3,19.6
		L31.3,19.6z M17.4,50.2c0.1,0.2,0.1,0.3,0.1,0.5c0,0.9-0.7,1.6-1.6,1.6c-0.1,0-0.2,0-0.3,0h-0.1l-10.2-2H5.3
		c-0.3-0.1-0.7-0.3-0.9-0.6v-0.1l-2.8-4.8l-0.1-0.1c-0.3-0.4-0.3-1-0.3-1.5c0-0.5,0.1-1,0.3-1.5l0.1-0.1l6.5-11.2v-0.1
		c0.3-0.4,0.7-0.7,1.3-0.7s1.1,0.3,1.4,1v0.1L17.4,50.2L17.4,50.2z M24.1,51.2c0,0.9-0.7,1.5-1.6,1.5c-0.6,0-1.1-0.3-1.4-1v-0.1
		l-3.5-10.1v-0.1c-0.1-0.2-0.1-0.3-0.1-0.5c0-0.4,0.2-0.8,0.4-1v-0.1l3.5-4.1l0,0c0.3-0.3,0.7-0.4,1-0.4c0.8,0,1.5,0.7,1.6,1.5
		c0,0,0,0,0,0.1c0,0,0,0,0,0.1V51.2C24.1,51.1,24.1,51.1,24.1,51.2L24.1,51.2z M9.6,54.2c0.1,0,0.2,0,0.3,0H10L30,58.1h0.1
		c0.7,0.2,1.2,0.8,1.2,1.5c0,0.4-0.2,0.8-0.4,1l0,0l-6.9,8v0.1c-0.3,0.3-0.6,0.4-1,0.4c0,0,0,0-0.1,0c-0.1,0,0,0-0.1,0h-5.4h-0.1
		h-0.1c-1,0-2-0.6-2.5-1.6l-0.1-0.1L8.3,56.6v-0.1c-0.2-0.3-0.3-0.5-0.3-0.8C8.1,54.9,8.8,54.2,9.6,54.2z M38.3,36.5
		c0.3-0.3,0.7-0.4,1-0.4c0.6,0,1.1,0.3,1.4,1v0.1l2.7,7.8v0.1c0.1,0.2,0.1,0.3,0.1,0.5c0,0.4-0.2,0.8-0.4,1v0.1l-3,3.5l0,0
		c-0.3,0.3-0.7,0.4-1,0.4c-0.5,0-1-0.3-1.2-0.6v-0.1l-4.4-5.7c0,0,0,0,0-0.1c-0.2-0.3-0.3-0.5-0.3-0.9c0-0.4,0.2-0.8,0.4-1v-0.1
		L38.3,36.5L38.3,36.5z M27.1,32.2c0-0.8,0.7-1.5,1.6-1.5c0.1,0,0.2,0,0.3,0H29l6.1,1.2h0.1c0.7,0.2,1.1,0.8,1.1,1.5
		c0,0.4-0.2,0.8-0.4,1v0.1l-6.1,7.2v0.1c-0.3,0.3-0.7,0.4-1,0.4c-0.8,0-1.5-0.7-1.6-1.5c0,0,0,0,0-0.1c0,0,0,0,0-0.1L27.1,32.2
		C27.1,32.3,27.1,32.3,27.1,32.2C27.1,32.3,27.1,32.2,27.1,32.2z M27.1,50.1C27.1,50.1,27.1,50,27.1,50.1c0-0.4,0.2-0.8,0.4-1V49
		l1.8-2.1v-0.1c0.3-0.3,0.7-0.4,1-0.4c0.5,0,1,0.3,1.2,0.6v0.1l4.4,5.7v0.1c0.2,0.3,0.3,0.5,0.3,0.9c0,0.4-0.2,0.8-0.4,1v0.1
		l-0.5,0.6v0.1c-0.3,0.3-0.7,0.4-1,0.4c-0.1,0-0.2,0-0.3,0h-0.1l-5.7-1.1h-0.1c-0.7-0.2-1.1-0.8-1.1-1.5c0,0,0,0,0-0.1
		c0,0,0,0,0-0.1L27.1,50.1L27.1,50.1z M29.9,66.7l13.4-15.7l0,0c0.3-0.3,0.7-0.4,1-0.4c0.6,0,1.1,0.3,1.4,1v0.1l3.5,10v0.1
		c0.1,0.2,0.1,0.3,0.1,0.5c0,0.3-0.1,0.6-0.3,0.8v0.1l-2.7,4.7h0.1c-0.5,0.9-1.5,1.5-2.5,1.6h-0.1h-0.1H31c0,0,0,0-0.1,0
		c-0.1,0,0,0-0.1,0c-0.8,0-1.5-0.7-1.5-1.6C29.4,67.4,29.5,67.1,29.9,66.7L29.9,66.7z"/>
	<g>
		<path class="st1" d="M318.4,30.4c-1-1.2-2.6-2.9-3.8-3.8c-1.1,1.3-2.6,2.9-4.2,3.8c-0.2-0.2-0.5-0.6-0.8-1
			c3.1-1.7,5.5-4.8,6.6-7.2h-5.4v-1.2h6l0.2-0.1l1,0.5c0,0.1-0.1,0.1-0.2,0.2c-0.6,1.5-1.3,2.6-2.2,3.9c1.2,1,3,2.6,4,3.8
			L318.4,30.4z M304.2,22.4c-0.7,0-1.3-0.5-1.3-1.3s0.6-1.3,1.3-1.3c0.7,0,1.3,0.5,1.3,1.3C305.5,21.8,304.9,22.4,304.2,22.4z
			 M304.2,20.2c-0.5,0-0.8,0.4-0.8,0.8c0,0.5,0.4,0.8,0.8,0.8c0.5,0,0.8-0.4,0.8-0.8C305.1,20.6,304.7,20.2,304.2,20.2z M304,29.9
			c-0.5-2-1.8-5.2-3-7.5l1.1-0.5c1.2,2.1,2.4,5.4,3.1,7.5L304,29.9z M295.6,30c-0.3-0.2-0.7-0.4-1.1-0.6c1.3-1.6,2.2-4.5,2.5-7.4
			l1.6,0.3c0,0.1-0.1,0.2-0.3,0.2C298,25.2,297,28.2,295.6,30z M298.8,64c0,0.3,0.1,0.6,0.4,0.8c1,0.6,2.6,1.1,4.3,1.1
			c1.7,0,3.4-0.3,4.3-1c1.2-0.7,1.9-1.9,1.9-3.8c0-2.8-1.9-3.7-5.3-5.1c-4.6-1.9-8.3-3.9-8.3-9c0-4.3,3.6-7.6,6.3-8.9s5.7-1.7,9-1.7
			c3.1,0,6.3,0.7,7.7,1.6c-0.3,3.1-0.5,6.3-0.7,9.2c-1.2,0.1-2.8,0.2-4.1,0.2l-0.4-4.6c0-0.4-0.1-0.6-0.4-1c-0.7-0.5-2.1-1-3.6-1
			c-1.2,0-2.8,0.1-3.9,0.8c-1.2,0.7-2.3,2-2.3,3.8c0,2.5,2.2,3.4,5.4,4.8c5,2.1,7.9,4.3,7.9,8.8c0,4-2,7.2-5.5,9.2
			c-2.1,1.3-5.2,2-10,2c-3.3,0-6.7-0.6-8.3-1.4c0.2-3.3,0.4-6.8,0.5-10c1.4-0.2,2.9-0.2,4.2-0.2L298.8,64z M287.7,47.3l-0.4-4.6
			c0-0.4-0.1-0.6-0.4-1c-0.7-0.5-2.1-1-3.6-1c-1.2,0-2.8,0.1-3.9,0.8c-1.2,0.7-2.3,2-2.3,3.8c0,2.5,2.2,3.4,5.4,4.8
			c5,2.1,7.9,4.3,7.9,8.8c0,4-2,7.2-5.5,9.2c-2.1,1.3-5.2,2-10,2c-3.3,0-6.7-0.6-8.3-1.4c0.2-3.3,0.4-6.8,0.5-10
			c1.4-0.2,2.9-0.2,4.2-0.2L272,64c0,0.3,0.1,0.6,0.4,0.8c1,0.6,2.6,1.1,4.3,1.1c1.7,0,3.4-0.3,4.3-1c1.2-0.7,1.9-1.9,1.9-3.8
			c0-2.8-1.9-3.7-5.3-5.1c-4.6-1.9-8.3-3.9-8.3-9c0-4.3,3.6-7.6,6.3-8.9c2.6-1.3,5.7-1.7,9-1.7c3.1,0,6.3,0.7,7.7,1.6
			c-0.3,3.1-0.5,6.3-0.7,9.2C290.7,47.2,289.1,47.3,287.7,47.3z M290.8,21.4h-0.1c-0.8,1-2.1,1.9-3.2,2.8c0.1,0,0.2,0.1,0.3,0.1
			c0,0.1-0.1,0.2-0.3,0.2v6.1h-1.2v-5.7c-1.2,0.8-2.6,1.7-4.1,2.4c-0.2-0.3-0.4-0.6-0.7-1c3.1-1.4,6.6-3.9,8.4-5.9l1.2,0.8
			C291,21.3,290.9,21.4,290.8,21.4z M269.7,30.5l-0.6-1.1l0.2-0.2v-8.5l1.6,0.1c0,0.1-0.1,0.2-0.3,0.3v7.7c2.8-0.7,5-2.2,6.3-4.6
			c0.2,0.3,0.6,0.6,0.8,0.8c-1.5,2.5-4.1,4.2-7.6,5.1C269.9,30.4,269.8,30.5,269.7,30.5z M258.3,65.3c0.5,0,2.4-0.4,4.7-1.1
			c0.3,1.4,0.5,2.9,0.7,4.2c-3.3,1.2-7.4,1.9-10.4,1.9c-0.3,0-1.8-1.1-2.2-2c0.2-1.3,0.7-4,1.4-6.8l-0.5-0.2
			c-6.7,7.2-11.3,9.4-13.9,9.2c-1.7-0.1-4.6-2-5.7-4.3c-0.5-1-0.7-2-0.7-3.4c0-2.5,0.8-7,2.2-10.8c2.2-6,7.6-15.6,15.3-15.6
			c2.9,0,5.5,1.3,7.6,3.5h0.4L259,36c2,0.5,3.9,1.2,5.8,1.8c-2,7-5.1,19.7-6.7,27C257.9,65,258,65.3,258.3,65.3z M249.8,41.6
			c-3.4,0-6.1,4.6-7.7,8.3c-1.7,4-2.8,8.6-2.8,11.8c0,1.9,1,3.1,2.1,3.1c3.1,0,10.5-7.4,11.7-11c0.4-1.3,1.7-6.4,2.2-9
			C254,42.8,252,41.6,249.8,41.6z M260.3,30.5l-1.2,0.1l-0.4-3.5l-4.2,0.5l-0.1-1.1l4.2-0.5l-0.2-2.3l-3.5,0.4l-0.1-1.1l3.5-0.4
			l-0.2-2.2l1.5-0.1c0,0.1-0.1,0.2-0.3,0.3l0.2,1.8l3.4-0.4l0.1,1.1l-3.4,0.4l0.2,2.3l4.2-0.5l0.1,1.1l-4.2,0.5L260.3,30.5z
			 M212.7,70.3c-2.9,0-5.4-0.7-7.7-2.5c-1.1,5.2-2.9,14.7-3.9,19.9c-2.3,0.1-4.8,0.1-7.2,0.1c2.5-13.9,5.9-32.1,8.3-45.5l-5.9,0.1
			c0-1.5,0-3,0-4.3c7.4-1.1,10.1-1.9,10.6-1.9c0.6,0,2.1,1.2,2.6,2.2c-0.4,2.1-1.1,5.3-1.7,8.3l0.7,0.1c5.9-7.5,10.9-11.7,15-10.7
			c1.9,0.4,4.6,2.3,5.7,4.8c0.3,0.7,0.6,1.9,0.6,3c0,4.3-1.4,10.2-3.6,15.2C224.4,63.7,219.9,70.3,212.7,70.3z M220.1,42.8
			c-4,0-11.8,8.8-12.9,12.9c-0.3,1.5-1,5.2-1.4,7.1c1.7,1.7,3.8,2.8,5.8,2.8c3.5,0,6-3.1,7.5-6.3c1.9-4,3.1-9.6,3.1-13.2
			C222.3,44.3,221.6,42.8,220.1,42.8z M189.8,30.4c-2.9,0-4.8-2.3-4.8-4.7s2-4.8,5.2-4.8c3.3,0,4.6,2.4,4.6,4.5
			C194.8,28.2,192.4,30.4,189.8,30.4z M192,38.8c-1.6,7.1-5.2,22.8-6,26.2c-0.1,0.3,0,0.5,0.3,0.5c0.8,0,3-0.4,5.3-1.1
			c0.2,1.4,0.4,2.8,0.5,4.2c-3.2,1-6.9,1.6-11.1,1.6c-0.5,0-2.4-1.6-3-2.8c1.6-7.5,3.9-17.6,5.5-25l-6.1,0.2c0-1.5-0.1-3-0.1-4.3
			c5.8-0.7,11.1-1.9,12-1.9C189.9,36.4,191.5,37.9,192,38.8z M169.8,52.4c-3.9,2.1-9.2,3-16,2.9c-0.4,1.4-0.7,3.4-0.7,4.6
			c0,3.2,1.8,5.2,5,5.2c2.9,0,7.5-1.4,11.9-3.6c0.5,1.3,1,2.6,1.3,3.9c-4.6,2.6-10.4,5-16.4,5c-4.6,0-9.7-3.4-9.7-9.7
			c0-5.1,2.3-12.9,7.5-18.3c4.2-4.3,8.3-5.8,12.3-5.8c6,0,9.4,4.6,9.2,8.6C173.8,47.9,171.9,51.1,169.8,52.4z M162.7,40.9
			c-1.9,0-3.5,1-4.9,2.6c-1.3,1.6-2.4,3.8-3.4,7.6c3.5,0.1,6.9-0.4,9.3-1.7c1.5-0.7,2.6-1.8,2.6-3.8
			C166.4,43.3,165.2,40.9,162.7,40.9z M141.8,44.7c-3.1,0-9.6,7.7-11.1,13.6c-0.6,2.4-1.9,8.3-2.6,11.4c-2.4,0-4.9,0-7.3,0
			c1.4-6.1,4.2-19.3,5.8-27.3l-5.6,0.4c-0.1-1.5-0.1-2.9-0.1-4.3c5.8-0.8,10.2-2.1,10.7-2.1c0.5,0,2,1.4,2.4,2.1
			c-0.4,1.8-1.1,4.9-1.9,9l0.6,0.2c4.7-7.2,8.8-11.3,11.4-11.3c1.8,0,3.4,0.7,4,1.2c0,2.6-1.9,7.2-2.9,7.9
			C144.9,45.2,142.8,44.7,141.8,44.7z M114.1,30.4c-2.9,0-4.8-2.3-4.8-4.7s2-4.8,5.2-4.8c3.3,0,4.6,2.4,4.6,4.5
			C119.1,28.2,116.7,30.4,114.1,30.4z M116.2,38.8c-1.6,7.1-5.2,22.8-6,26.2c-0.1,0.3,0,0.5,0.3,0.5c0.8,0,3-0.4,5.3-1.1
			c0.2,1.4,0.4,2.8,0.5,4.2c-3.2,1-6.9,1.6-11.1,1.6c-0.5,0-2.4-1.6-3-2.8c1.6-7.5,3.9-17.6,5.5-25l-6.1,0.2c0-1.5-0.1-3-0.1-4.3
			c5.8-0.7,11.1-1.9,12-1.9C114.2,36.4,115.8,37.9,116.2,38.8z M84.7,50v0.4c2.9,1.2,4.6,4.5,5.6,8.2c0.7,2.6,1.3,4.7,1.9,6
			c0.2,0.4,0.6,0.6,1,0.5c1.1-0.1,2.6-0.3,4.5-0.7c0.1,1.3,0.3,2.8,0.3,4.1c-2.8,1-7.9,1.6-11.7,1.6c-1-1.7-2-5.1-2.9-8.6
			c-1.2-4.8-2.3-7.1-3.8-7.1c-0.5,0-1,0.3-1.4,0.7c-1.2,1-2.4,2.3-3.7,3.7c-0.8,3.3-1.8,7.8-2.5,10.7c-2.4,0-4.9,0-7.3,0
			c1.6-7,8.4-37.4,10.4-47l-6.3,0.3c-0.1-1.5-0.1-2.9-0.1-4.3c5.6-0.6,11.8-2.1,12.3-2.1c0.6,0,2,1.3,2.6,2.2
			c-1.4,6-5.2,22-8.1,33.5l0.5,0.2c8.3-9.9,15.6-16,19.6-16c1.1,0,3.2,2.9,3.3,5.8C93.5,42.9,89.3,45.8,84.7,50z"/>
		<path class="st2" d="M311,88.6c-4.8,0-8.7-2.3-8.7-5.3s3.9-5.3,8.7-5.3s8.7,2.3,8.7,5.3C319.7,86.2,315.8,88.6,311,88.6z
			 M311,79.5c-3,0-5.3,1.7-5.3,3.8s2.3,3.8,5.3,3.8s5.3-1.7,5.3-3.8S313.9,79.5,311,79.5z M302.4,88.5h-3c0,0-0.1,0-0.1-0.1
			l-1.6-5.4l-2.9,4.8l-0.1,0.1h-0.7h-0.7c0,0-0.1,0-0.1-0.1l-2.9-4.8l-1.6,5.4c0,0,0,0.1-0.1,0.1h-3c0,0-0.1,0,0-0.1l3.2-10.2
			c0,0,0-0.1,0.1-0.1h1.2c0,0,0.1,0,0.1,0.1l3.9,6l3.9-6c0,0,0-0.1,0.1-0.1h1.2c0,0,0.1,0,0.1,0.1L302.4,88.5
			C302.4,88.4,302.4,88.5,302.4,88.5z M277.2,88.6c-4.8,0-8.7-2.3-8.7-5.3s3.9-5.3,8.7-5.3c3.3,0,6,1.1,7.6,2.6l0,0l0,0
			c0,0,0,0.1-0.1,0.1h-3.5l0,0l0,0c-1-0.8-2.4-1.3-4-1.3c-3,0-5.3,1.7-5.3,3.8c0,2.1,2.3,3.8,5.3,3.8c2.4,0,4.5-1.2,5.1-2.9h-5.1
			c-0.4,0-0.8-0.3-0.8-0.8c0-0.4,0.3-0.8,0.8-0.8h5.2h3h0.4h0.1l0,0c0,0.2,0.1,0.4,0.1,0.6C285.9,86.2,282,88.6,277.2,88.6z
			 M265.1,88.5c-0.3,1.1-0.6,1.4-1.6,1.4c-0.3,0-0.5,0-0.7,0v-1.1c0.1,0,0.2,0,0.3,0c0.1,0,0.3,0,0.5-0.1c0.1-0.1,0.3-0.3,0.3-0.4
			l-1.7-5h1.3l1.1,3.6l1-3.6h1.2l-1.3,4.2L265.1,88.5z M259.7,88.2c-0.6,0-1.1-0.3-1.4-0.6v0.5h-1.2v-6.9h1.2v2.4
			c0.4-0.3,0.8-0.5,1.4-0.5c1.1,0,2.1,1.1,2.1,2.5C262,87.3,260.9,88.2,259.7,88.2z M259.5,84.1c-0.5,0-1.2,0.4-1.2,1.5
			c0,0.3,0,0.5,0.1,0.6c0.2,1,1.1,1,1.2,1c0.8,0,1.2-0.8,1.2-1.5C260.8,84.6,260.1,84.1,259.5,84.1z"/>
	</g>
</g>
</svg>
