<?xml version="1.0" encoding="utf-8"?>
<!-- Generator: Adobe Illustrator 22.1.0, SVG Export Plug-In . SVG Version: 6.00 Build 0)  -->
<svg version="1.1" id="レイヤー_3" xmlns="http://www.w3.org/2000/svg" xmlns:xlink="http://www.w3.org/1999/xlink" x="0px"
	 y="0px" width="351px" height="430px" viewBox="0 0 351 430" style="enable-background:new 0 0 351 430;" xml:space="preserve">
<style type="text/css">
	.st0{fill:#2472B7;}
	.st1{fill:#4C4C4C;}
	.st2{fill:#FE7072;}
</style>
<g>
	<path d="M26.9,11.5l3.1,2.2c-0.2,0.4-0.6,0.6-1.5,0.6h-5.1c-1,3.6-2.2,6.4-4.2,8.7c6.8,1.9,9,4.5,9,5.9c0,0.6-0.4,1-1.1,1
		c-0.2,0-0.5-0.1-0.8-0.2c-1.7-1.5-4.8-3.4-8.8-5.1C14.2,27.4,9.4,29.1,2,30l-0.2-0.5c6.1-1.2,10.4-3,13.5-5.7
		c-2.1-0.8-4.4-1.5-6.9-2l-0.8,1.5c-0.2,0.1-0.5,0.2-0.9,0.2c-0.5,0-1.2-0.1-1.8-0.4c1.1-2,2.9-5.4,4.4-8.7H1.2l-0.2-0.7h8.6
		c1.1-2.4,2.1-4.6,2.5-6l3.6,0.7c-0.1,0.4-0.4,0.6-1.3,0.6c-0.5,1.1-1.3,2.8-2.2,4.7h12.8L26.9,11.5z M24.6,10.3
		c0.4-0.9,1-2.6,1.3-3.9H5.7c0,2.6-1.4,4.3-3.2,4.3c-0.9,0-1.4-0.6-1.4-1.1c0-0.6,0.4-1.1,1-1.4C3.5,7.6,4.8,5.9,4.8,4h0.5
		c0.2,0.6,0.3,1.2,0.3,1.7h8.5V1l4,0.3c0,0.5-0.3,0.7-1.4,0.8v3.5h9l1.5-1.5l2.7,2.5c-0.2,0.2-0.6,0.3-1.2,0.3
		c-0.9,1.1-2.5,2.6-3.8,3.4L24.6,10.3z M12.1,14.3c-1.1,2.3-2.4,4.8-3.4,6.9c3.1,0.3,5.7,0.7,8,1.2c1.8-2.1,3-4.8,3.8-8.1H12.1z"/>
	<path d="M37.9,13.5c0.5,1.7,0.7,3.3,0.7,4.6c0,4.1-2.1,6.9-4.2,6.9c-0.9,0-1.2-0.7-1.2-1.1c0-0.5,0.3-1.1,0.8-1.5
		c1.8-1.4,3.5-4.8,3.3-8.9L37.9,13.5z M41.2,2.1C49.4,2.2,52,5,52,6.8C52,7.5,51.5,8,50.8,8c-0.2,0-0.4,0-0.7-0.1
		c-1.2-1.7-4.4-4.1-9-5.3L41.2,2.1z M41.8,10.1l3.7,0.3c-0.1,0.4-0.2,0.6-1.2,0.8v14.5c0,1.1,0.1,1.1,1.3,1.1h6.1
		c0.6,0,0.9-0.1,1.2-0.5c0.3-0.5,0.8-2.4,1.3-4.5h0.3l0,4.8c1.1,0.4,1.2,0.5,1.2,0.9c0,1.1-0.9,1.6-4,1.6h-6.1
		c-3.1,0-3.8-0.6-3.8-3.4V10.1z M55.1,12.2c5.3,3,7,6.9,7,9.5c0,1.8-0.8,3.1-1.7,3.1c-0.4,0-0.8-0.2-1.1-0.7
		c0.1-3.1-0.9-8.2-4.4-11.6L55.1,12.2z"/>
	<path d="M69.1,4c0.3-0.7,1.1-1.3,2.1-1.3C73,2.7,75,3.8,75,5c0,0.7-0.6,0.9-0.9,2.7c-0.5,2.5-1,8.6-1.1,12.4c0,4.5,2.3,5.4,5.8,5.4
		c4.6,0,8.6-2.4,11.4-7.4l0.6,0.3c-2.5,6.8-7,9.5-12.1,9.5c-4.3,0-7.8-1.7-7.8-7.7c0-4.1,0.5-10.4,0.8-14.7V5.4
		c0-1.3-1.2-1.3-1.7-1.3C69.7,4,69.4,4,69.1,4L69.1,4z"/>
	<path d="M93.1,5.7c0.2,1.1,1,1.7,2.2,1.7c0.6,0,1.7-0.1,2.4-0.3c2.5-0.5,9.7-1.8,13.6-2.3c1-0.1,1.9-0.4,2.3-0.8
		c2.7,0.5,3.8,1.1,3.8,2.2c0,0.7-0.7,0.8-1.6,0.8c-0.7,0-1.4-0.1-2.1-0.1c-3.5,0-7.4,3.1-9,5.7c-0.9,1.5-1.7,4.2-1.7,6.7
		c0,4,2.4,5.4,5.8,5.8c0.8,0.1,1.9,0.1,2.3,0.3c1.1,0.4,1.5,1.1,1.5,1.9c0,0.7-0.6,0.9-1.6,0.9c-0.2,0-0.5,0-0.8-0.1
		c-7.3-0.8-9.3-3.4-9.3-8.7c0-5.7,4.1-10.4,8.6-13.1l0-0.1C106.8,6.7,99.1,8.1,97,9.7c-0.4,0.3-0.8,0.6-1.5,0.6
		c-1.4,0-3.2-1.7-3.2-3.2c0-0.6,0.2-1.1,0.6-1.5L93.1,5.7z"/>
	<path d="M151.9,20.5c-0.2,0.4-0.6,0.6-1.5,0.6h-11.4c2.4,4,7.2,5.6,13.3,6.2l0,0.3c-1.1,0.3-1.7,1.1-2,2.4c-6.2-1.4-10-3.7-12-8.9
		h-0.4c-1.1,4.1-4.1,6.9-14.3,8.9l-0.2-0.6c7.8-2.2,10.6-4.8,11.7-8.3h-11.5l-0.2-0.7h11.8c0.3-1.3,0.4-2.7,0.5-4.3l4,0.3
		c0,0.4-0.3,0.6-1.2,0.7c-0.1,1.1-0.2,2.2-0.5,3.2h9.2l1.6-2.1L151.9,20.5z M123.5,15.2h12.6v-3.8h-9.9l-0.2-0.7h10.1V6.9h-11.5
		l-0.2-0.7h15.8c0.8-1.6,1.8-3.7,2.3-5.2l3.7,1.4c-0.2,0.2-0.4,0.3-0.8,0.3c-0.1,0-0.2,0-0.4,0c-1,1.1-2.5,2.4-3.9,3.5h5.1l1.6-2
		l3,2.1c-0.2,0.4-0.6,0.6-1.5,0.6h-10.8v3.8h6.3l1.5-1.9l2.9,2c-0.2,0.5-0.6,0.6-1.5,0.6h-9.2v3.8h8.4l1.6-2l3,2.1
		c-0.2,0.4-0.6,0.6-1.5,0.6h-26.5L123.5,15.2z M129.6,1.1c3.3,0.9,4.3,2.4,4.3,3.5c0,0.9-0.7,1.6-1.4,1.6c-0.4,0-0.8-0.2-1.1-0.6
		c-0.1-1.4-1-3.3-2-4.3L129.6,1.1z"/>
	<path d="M156.6,22.5c5.5-2.9,10.9-7.8,13-11.9l3.7,1c-0.1,0.4-0.4,0.5-1.3,0.6c3.1,3.3,8.1,6,13.7,7.6l0,0.5
		c-1,0.3-1.6,1.2-1.9,2.1c-1.1-0.5-2.2-1-3.2-1.6c-0.2,0.1-0.5,0.2-0.8,0.3V29c0,0.1-0.7,0.8-2.5,0.8v-1.6h-12.5v1
		c0,0-0.4,0.9-2.4,0.9v-9.7c-1.8,1.1-3.7,2-5.7,2.7L156.6,22.5z M180.6,9.2c0.3-0.9,0.8-2.4,1.1-3.6h-20.3c-0.1,2.4-1.5,3.9-3.2,3.9
		c-0.8,0-1.4-0.4-1.4-1.1c0-0.6,0.5-1.1,1.1-1.4c1.3-0.5,2.7-1.9,2.7-3.7h0.5c0.2,0.6,0.2,1.1,0.3,1.6h8.5V0.9l4,0.4
		c0,0.5-0.3,0.7-1.4,0.8V5h9.1l1.5-1.5l2.7,2.5c-0.2,0.2-0.6,0.3-1.2,0.3c-0.8,1-2.3,2.4-3.4,3.1L180.6,9.2z M168.7,8.8
		c-0.1,0.2-0.3,0.3-0.7,0.3c-0.2,0-0.3,0-0.5-0.1c-1.9,2.1-5.3,4.6-8.8,6l-0.3-0.5c2.9-2,5.9-5.1,7.2-7.6L168.7,8.8z M177.1,19.9
		l0.7-0.8c-2.6-1.9-4.8-4-6.3-6.4c-1.7,2.2-4.4,4.7-7.6,6.8l1.3,0.5H177.1z M164.9,27.4h12.5v-6.8h-12.5V27.4z M174.2,7.6
		c6.1,1.2,8.1,3.9,8.1,5.5c0,0.8-0.5,1.4-1.2,1.4c-0.2,0-0.6-0.1-0.9-0.3c-1-2.2-3.8-4.8-6.2-6.2L174.2,7.6z"/>
	<path d="M215.6,24.6l3.3,2.3c-0.2,0.4-0.6,0.6-1.5,0.6h-22.8v1.6c0,0.2-0.8,0.9-2.1,0.9h-0.4V2.7l2.9,1.2h17.9l1.6-2.1l3.1,2.2
		c-0.3,0.4-0.7,0.6-1.5,0.6h-21.6v22.2h19.3L215.6,24.6z M216.8,15.3c-0.2,0.4-0.6,0.6-1.5,0.6h-8.5c-0.2,0.7-0.3,1.4-0.6,2
		c6,1.5,7.9,4.1,7.9,5.7c0,0.8-0.5,1.3-1.1,1.3c-0.3,0-0.6-0.1-0.9-0.3c-1-2.1-3.7-4.5-6.1-6.1c-1.3,3.1-3.9,5.4-9.4,7.3l-0.4-0.5
		c5.5-2.4,7.4-5.5,8-9.4h-8.2l-0.2-0.7h8.5c0.2-1.6,0.2-3.4,0.2-5.3h-3.4c-1,1.8-2.2,3.3-3.6,4.4l-0.5-0.3c1.3-2,2.5-5.5,3.2-9
		l3.5,1c-0.1,0.4-0.3,0.6-1.1,0.6c-0.3,0.9-0.7,1.8-1.2,2.6h8.5l1.6-2l2.9,2c-0.2,0.5-0.6,0.6-1.5,0.6h-5.8c0,1.9-0.1,3.7-0.3,5.3
		h5.3l1.6-2L216.8,15.3z"/>
	<path d="M242.3,10.1c0.9,1.1,2,2.2,3.3,3c0.7-0.7,1.4-1.7,1.7-2.2l2.8,1.3c-0.1,0.2-0.2,0.2-0.9,0.2c-0.7,0.3-1.7,0.7-2.8,1.1
		c1.6,1,3.5,1.6,5.3,2l0,0.3c-0.9,0.2-1.6,0.9-1.9,2c-1.1-0.4-2.1-1-3-1.6v6.4c0,0.1-0.7,0.7-2.4,0.7v-1h-3v4.4
		c0,1.7-0.5,2.9-3.4,3.1c0-1.6-0.5-2-2.9-2.2v-0.4h3.3c0.4,0,0.5-0.1,0.5-0.5v-4.4h-3.1v0.5c0,0.2-0.7,0.6-1.9,0.6h-0.4v-7.5
		c-1.2,0.8-2.6,1.6-4.2,2.1c-0.4,4.2-1.6,8.5-5.5,11.6l-0.5-0.3c2.4-3.2,3.3-7.1,3.6-11.1c-0.8,0.8-1.7,1.7-2.9,2.7
		c-0.1,0.4-0.3,0.7-0.7,0.9l-1.2-3c0.9-0.3,2.8-1,4.8-1.8c0.1-1.1,0.1-2.1,0.1-3.1V4.1l2.8,1.1h6.6V1l3.7,0.3c0,0.4-0.3,0.7-1.3,0.8
		v3.1h7.8l1.5-2l2.9,2.1C251,5.8,250.6,6,249.7,6h-10.4l2.5,0.8c-0.2,0.3-0.4,0.6-1.2,0.5c-0.3,0.7-0.6,1.4-1,2.1h7l1.4-1.9l2.7,2
		c-0.2,0.4-0.6,0.6-1.5,0.6H242.3z M222.9,7.3c2.9,1.4,3.9,3.1,3.9,4.3c0,1-0.7,1.7-1.4,1.7c-0.4,0-0.7-0.2-1.1-0.6
		c0-1.6-0.8-3.9-1.7-5.2L222.9,7.3z M228.3,29.1c2.4-1.3,4.8-3.6,6-5.4l2.9,1.6c-0.1,0.2-0.3,0.3-0.7,0.3c-0.1,0-0.3,0-0.5-0.1
		c-1.6,1.5-4.5,3.2-7.4,4L228.3,29.1z M229.6,6v8.2c0,1.1,0,2.3-0.1,3.5c1.6-0.9,3.1-2.1,4.3-3.4c-0.1,0-0.5,0.2-0.7,0.2
		c-0.3,0-0.7-0.2-1-0.5c-0.1-0.9-0.7-2-1.3-2.7l0.2-0.2c2.5,0.5,3.3,1.5,3.3,2.2c0,0.1,0,0.2-0.1,0.3h0c0.9-1.1,1.6-2.2,2.2-3.4
		h-5.9l-0.2-0.7h6.4c0.5-1.1,1-2.3,1.2-3.4H229.6z M244.7,14.7c-1.3-1.3-2.4-2.8-3.2-4.6h-2.4c-1,1.7-2.3,3.3-3.9,4.8l1,0.4h7.9
		L244.7,14.7z M235.9,16v2.5h8.6V16H235.9z M244.5,21.8v-2.6h-8.6v2.6H244.5z M243.5,24.2c5.1,0.8,6.7,2.9,6.7,4.1
		c0,0.7-0.4,1.1-1,1.1c-0.3,0-0.6-0.1-0.9-0.3c-0.8-1.6-3.1-3.6-4.9-4.6L243.5,24.2z"/>
	<path d="M276.8,10.5c0.3-0.5,1.1-0.7,1.7-0.7c1.9,0,3.6,1.7,3.6,2.7c0,1-0.9,1.2-2.3,1.6c-1.5,0.4-4.9,1.7-7.5,2.9
		c0.1,0.4,0.1,0.9,0.1,1.3c0,3.5-0.7,4.8-1.8,4.8c-0.7,0-1.1-0.5-1.1-1.4c0-0.2,0-0.3,0-0.5c0.3-2.3,0.3-2.6,0.3-3.2
		c-2.7,1.5-5,3.2-5,5.6c0,1.9,1.9,2.6,5.4,2.6c2.9,0,5.4-0.2,5.9-0.7c2,0.2,3.2,0.7,3.2,1.4c0,0.7-0.3,1-1.6,1.2
		c-1.4,0.3-4.7,0.4-6.4,0.4c-6.2,0-8.4-1.7-8.4-4.5c0-3,3.6-5.8,6.7-7.5c0-0.2,0-0.4,0-0.7c-0.1-2.1-1.1-2.9-2.2-2.9
		c-2.7,0-5.9,3.4-8.5,7.2c-0.7,1.1-1.2,1.7-1.8,1.7c-0.6,0-1.1-0.6-1.1-1.5c0-0.9,0.7-1.4,1.7-2.3c2.6-2.2,5.1-6.3,6.1-9.2
		C263.1,9,262.2,9,261.6,9c-1.7,0-2.8-0.6-3.3-1.2c-0.4-0.4-0.8-1.2-1-1.9l0.3-0.2c0.8,1.2,1.9,1.8,3.8,1.8c0.7,0,2.1-0.1,3-0.2
		c0.4-1.2,0.6-2.2,0.6-2.9c0-0.8-0.8-1.1-1.6-1.1c-0.2,0-0.5,0-0.7,0.1l-0.1,0c0.1-0.7,0.9-1.4,2.1-1.4c1.8,0,3.3,0.8,3.3,1.7
		c0,0.7-0.5,0.8-0.7,1.5c-0.2,0.6-0.5,1.3-0.7,1.9c0.3,0,5.7-0.8,6.2-2.4c1.9,0,3.4,0.2,3.4,1.3c0,0.6-1,1-2,1.3
		c-1.9,0.6-5.8,1.4-8.4,1.7c-0.9,2.2-2,4.2-3,5.6l0.2,0c2-1.9,3.8-2.5,5-2.5c1.8,0,3.3,0.9,3.9,3.5c3-1.5,6.6-3,6.6-3.8
		c0-0.5-0.6-0.8-1.2-0.8c-0.2,0-0.3,0-0.5,0.1L276.8,10.5z"/>
	<path d="M296.3,2.2c-0.1,0.4-0.4,0.6-1.2,0.6c-0.8,2.2-1.8,4.4-2.9,6.4l1.2,0.4c-0.1,0.3-0.4,0.5-1,0.6v18.9c0,0.2-1.1,0.8-2,0.8
		h-0.5V13c-1.2,1.7-2.5,3.3-3.8,4.6l-0.4-0.3c2.5-3.6,5.2-10,6.8-16.2L296.3,2.2z M314.9,9.3c-0.2,0.4-0.6,0.6-1.5,0.6h-7.7
		c2,5.3,5.8,10,9.6,12.3l-0.1,0.3c-1,0.1-1.9,0.9-2.3,2.1c-3.5-3-6.1-7.8-7.7-13.9v11.8h1.6l1.3-1.8l2.4,1.9
		c-0.2,0.4-0.6,0.6-1.4,0.6h-3.9V29c0,0.1-0.3,0.9-2.5,0.9v-6.6h-4.9l-0.2-0.7h5.1v-9.1c-2,4.4-5.1,8.3-9.1,11.2l-0.4-0.4
		c3.8-3.8,6.6-9.1,8-14.4h-6.8l-0.2-0.7h8.5V1.1l3.8,0.3c-0.1,0.4-0.3,0.7-1.3,0.8v6.9h5.1l1.6-2.1L314.9,9.3z"/>
	<path d="M321.9,20.5c0.3,1.4,0.5,2.6,0.5,3.5c0,2.7-1.1,3.7-1.9,3.7c-0.5,0-0.9-0.4-0.9-1c0-0.2,0.1-0.6,0.3-0.9
		c1-0.9,1.5-2.8,1.6-5.3H321.9z M331.6,11.4L331.6,11.4c3.1-2.5,6.1-6.9,7.3-10.3c2.2,0.6,2.8,0.7,3.4,0.9c-0.1,0.3-0.4,0.5-1.1,0.6
		c1.9,2.6,4.9,4.9,8.3,6.1l0,0.4c-0.9,0.3-1.3,1.3-1.5,2.2c-3-2-5.7-5-7.2-8.4c-1.7,3.1-5.2,6.7-8.9,8.7l0.5,0.4
		c-0.2,0.4-0.6,0.6-1.4,0.6h-3v3.7h1.8l1.1-1.3l2.6,2c-0.2,0.3-0.6,0.4-1.2,0.5c-0.2,7-0.8,10.4-2,11.4c-0.8,0.6-1.6,0.9-3,0.9
		c0-1.4-0.4-1.6-2.6-2l0-0.5c0.8,0,2.5,0.1,3.1,0.1c0.5,0,0.7,0,0.9-0.2c0.5-0.4,0.8-2,1.1-4.7c-0.2,0.2-0.4,0.3-0.6,0.3
		c-0.2,0-0.5-0.1-0.7-0.3c-0.1-1.1-1-2.5-1.8-3.2l0.2-0.3c1.8,0.5,2.7,1.3,3,2.1c0.1-1.2,0.2-2.5,0.2-4.1h-6.6v1
		c0,0.2-0.7,0.7-1.8,0.7h-0.3V2.3l2.5,1.1h5.2l1.4-1.8l2.7,1.9c-0.2,0.4-0.7,0.6-1.5,0.6H328v3.6h0.9l1.2-1.6l2.4,1.7
		c-0.2,0.5-0.6,0.6-1.4,0.6H328V12h0.8l1.2-1.6L331.6,11.4z M323.4,20.3c1.3,1.6,1.8,3,1.8,4.2c0,1.3-0.6,2.1-1.2,2.1
		c-0.3,0-0.5-0.1-0.7-0.5c0.2-0.7,0.2-1.4,0.2-2.2c0-1.2-0.2-2.5-0.5-3.5L323.4,20.3z M325.9,4.1h-2.4v3.6h2.4V4.1z M325.9,12V8.3
		h-2.4V12H325.9z M325.9,16.4v-3.7h-2.4v3.7H325.9z M325.1,19.7c2,1.4,2.7,2.9,2.7,3.9c0,0.8-0.4,1.4-0.9,1.4
		c-0.2,0-0.5-0.1-0.7-0.4c0-1.4-0.7-3.5-1.4-4.7L325.1,19.7z M344.9,20.4h-3.3c1.3,3.4,4,6,7.4,7l0,0.3c-0.9,0.2-1.6,1-1.9,2.2
		c-3.3-1.9-5.1-4.9-6.1-9.5h0c-0.7,3.8-2.9,7.2-9.5,9.5l-0.3-0.4c5-2.5,6.9-5.6,7.5-9.1h-3v0.9c0,0.2-0.7,0.7-1.8,0.7h-0.3v-9.5
		l2.5,1.1h2.9v-3.2h-3.8L335,9.8h7.3l1.2-1.5l2.4,1.7c-0.2,0.4-0.6,0.6-1.4,0.6h-3.2v3.2h3.4l1-1.3l2.6,2c-0.2,0.2-0.5,0.4-1.1,0.5
		v6.4c0,0.1-0.8,0.6-1.9,0.6h-0.4V20.4z M335.7,19.7h3.1c0.1-0.9,0.2-1.9,0.2-2.8v-2.6h-3.3V19.7z M344.9,14.4h-3.7v2.5
		c0,1,0,1.9-0.2,2.9h3.8V14.4z"/>
</g>
<path class="st0" d="M218.3,427.7c-9.3,0-16.8-4.5-16.8-10.1c0-5.5,7.5-10,16.8-10c9.3,0,16.7,4.5,16.7,10
	C235,423.1,227.5,427.7,218.3,427.7z M218.3,410.4c-5.6,0-10.2,3.3-10.2,7.2c0,4,4.6,7.2,10.2,7.2c5.6,0,10.2-3.2,10.2-7.2
	C228.4,413.6,223.9,410.4,218.3,410.4z M201.8,427.4H196c-0.1,0-0.1-0.1-0.2-0.1l-3-10.3l-5.5,9c0,0-0.1,0.1-0.2,0.1h-1.3h-1.3
	c-0.1,0-0.2-0.1-0.2-0.1l-5.5-9l-3,10.3c0,0.1-0.1,0.1-0.2,0.1h-5.8c-0.1,0-0.1-0.1-0.1-0.1l6.1-19.3c0-0.1,0.1-0.1,0.1-0.1h2.2
	c0.1,0,0.2,0,0.2,0.1l7.4,11.5l7.5-11.5c0-0.1,0.1-0.1,0.2-0.1h2.2c0.1,0,0.1,0,0.1,0.1l6.1,19.3
	C201.9,427.3,201.9,427.4,201.8,427.4z M153.3,427.7c-9.3,0-16.8-4.5-16.8-10.1c0-5.5,7.5-10,16.8-10c6.3,0,11.7,2.1,14.6,5.1v0
	c0,0,0,0,0,0.1c0,0.1,0,0.1-0.1,0.1h-6.7c0,0-0.1,0-0.1,0c0,0,0,0,0,0c-1.9-1.5-4.6-2.5-7.7-2.5c-5.6,0-10.2,3.2-10.2,7.2
	c0,4,4.6,7.3,10.2,7.3c4.7,0,8.6-2.3,9.8-5.4h-9.8c-0.9,0-1.6-0.7-1.6-1.6c0-0.9,0.7-1.6,1.6-1.6h10h5.7h0.8c0.1,0,0.1,0,0.1,0.1v0
	c0.1,0.4,0.1,0.8,0.1,1.2C170.1,423.1,162.6,427.7,153.3,427.7z M130,427.4c-0.6,1.9-1.3,2.6-3.1,2.6c-0.7,0-1.1-0.1-1.3-0.1v-2
	c0.2,0,0.4,0,0.6,0c0.2,0,0.6,0,1-0.2c0.3-0.2,0.5-0.6,0.5-0.8l-3.4-9.5h2.4l2.1,6.9l1.8-6.9h2.3l-2.4,8.1L130,427.4z M119.8,427.1
	c-1.2,0-2.1-0.7-2.5-1.2v1H115v-13.1h2.2v4.6c0.7-0.7,1.7-1.1,2.7-1.1c2.1,0,4.1,1.9,4.1,4.9C124,425.2,122,427.1,119.8,427.1z
	 M119.4,419.3c-1,0-2.2,0.8-2.2,2.7c0,0.6,0.1,1,0.1,1.2c0.4,1.8,2,1.8,2.1,1.8c1.6,0,2.2-1.7,2.2-2.9
	C121.7,420.3,120.6,419.3,119.4,419.3z"/>
<path class="st1" d="M334,343.7c-1.4,0.2-3.5,0.2-5.3,0.3l-0.6-5.7c0-0.5-0.2-0.8-0.6-1.1c-1-0.6-2.6-1.2-4.5-1.2
	c-1.5,0-3.5,0.2-5,1c-1.5,0.9-2.9,2.4-2.9,4.7c0,3.2,2.8,4.2,6.8,5.9c6.2,2.6,10,5.4,10,10.9c0,5-2.5,8.9-6.9,11.4
	c-2.7,1.6-6.5,2.5-12.5,2.5c-4.1,0-8.5-0.8-10.4-1.7c0.2-4.1,0.5-8.4,0.7-12.3c1.7-0.2,3.6-0.3,5.3-0.3l0.8,6.4c0,0.4,0.2,0.8,0.5,1
	c1.3,0.8,3.3,1.3,5.5,1.3c2.1,0,4.2-0.3,5.5-1.2c1.5-0.9,2.4-2.4,2.4-4.7c0-3.4-2.4-4.6-6.6-6.3c-5.7-2.4-10.4-4.8-10.4-11.1
	c0-5.4,4.5-9.5,7.9-11.1c3.4-1.6,7.2-2.1,11.4-2.1c3.8,0,7.9,0.9,9.8,1.9C334.7,336.1,334.3,340.2,334,343.7z M295,344l-0.6-5.7
	c0-0.5-0.2-0.8-0.6-1.1c-1-0.6-2.6-1.2-4.5-1.2c-1.5,0-3.5,0.2-5,1c-1.5,0.9-2.9,2.4-2.9,4.7c0,3.2,2.8,4.2,6.8,5.9
	c6.2,2.6,10,5.4,10,10.9c0,5-2.5,8.9-6.9,11.4c-2.7,1.6-6.5,2.5-12.5,2.5c-4.1,0-8.4-0.8-10.4-1.7c0.2-4.1,0.5-8.4,0.7-12.3
	c1.7-0.2,3.6-0.3,5.3-0.3l0.8,6.4c0,0.4,0.2,0.8,0.5,1c1.3,0.8,3.3,1.3,5.5,1.3c2.1,0,4.2-0.3,5.5-1.2c1.5-0.9,2.4-2.4,2.4-4.7
	c0-3.4-2.4-4.6-6.6-6.3c-5.7-2.4-10.4-4.8-10.4-11.1c0-5.4,4.5-9.5,7.9-11.1c3.4-1.6,7.2-2.1,11.4-2.1c3.8,0,7.9,0.9,9.8,1.9
	c-0.3,3.8-0.7,7.8-1,11.4C298.8,343.9,296.8,343.9,295,344z M270.5,381.9c0,0.2-0.1,0.3-0.4,0.3v9.7c3.4-1,6.2-2.8,7.9-5.7
	c0.3,0.3,0.8,0.8,1.1,1c-1.9,3.2-5.3,5.2-9.6,6.4c0,0.1-0.1,0.3-0.3,0.3l-0.8-1.4l0.2-0.3v-10.5L270.5,381.9z M258.2,366.1
	c0.7,0,3-0.5,5.8-1.4c0.4,1.7,0.7,3.5,0.9,5.3c-4.1,1.5-9.3,2.4-13,2.4c-0.4,0-2.3-1.3-2.8-2.5c0.2-1.5,1-5,1.8-8.4l-0.7-0.2
	c-8.3,8.9-14.2,11.8-17.5,11.5c-2.2-0.2-5.8-2.5-7.2-5.4c-0.6-1.2-1-2.5-1-4.2c0-3.1,1-8.6,2.8-13.4c2.8-7.5,9.6-19.3,19.1-19.3
	c3.7,0,6.9,1.5,9.6,4.3h0.5l2.2-4.9c2.5,0.7,5,1.4,7.4,2.2c-2.5,8.6-6.4,24.5-8.3,33.5C257.7,365.9,257.9,366.1,258.2,366.1z
	 M247.4,336.9c-4.3,0-7.8,5.6-9.7,10.2c-2.1,5-3.5,10.7-3.5,14.5c0,2.4,1.2,3.8,2.6,3.8c3.8,0,13.1-9.3,14.7-13.6
	c0.5-1.6,2.1-7.9,2.8-11.1C252.8,338.3,250.2,336.9,247.4,336.9z M200.9,372.5c-3.7,0-6.8-0.9-9.7-3.2c-1.3,6.4-3.6,18.2-4.9,24.7
	c-2.9,0.1-5.9,0.1-9.1,0.1c3.2-17.2,7.4-39.8,10.4-56.3l-7.4,0.1c0-1.9,0-3.6,0-5.3c9.4-1.3,12.7-2.3,13.3-2.3
	c0.7,0,2.6,1.4,3.4,2.7c-0.5,2.6-1.3,6.6-2.1,10.3l1,0.2c7.5-9.4,13.7-14.4,19-13.3c2.4,0.5,5.7,2.8,7.2,6c0.4,0.9,0.8,2.3,0.8,3.7
	c0,5.4-1.7,12.7-4.6,18.7C215.6,364.2,209.9,372.5,200.9,372.5z M210.1,338.3c-5.1,0-14.8,11-16.2,16c-0.4,1.8-1.2,6.4-1.7,8.8
	c2.1,2.2,4.8,3.5,7.3,3.5c4.4,0,7.6-3.8,9.5-7.7c2.4-5,3.8-11.9,3.8-16.5C212.9,340.2,212,338.3,210.1,338.3z M172.2,322.9
	c-3.6,0-6-2.9-6-5.8c0-2.9,2.6-5.9,6.5-5.9c4.1,0,5.7,3.1,5.7,5.5C178.4,320.2,175.4,322.9,172.2,322.9z M174.9,333.3
	c-2,8.8-6.6,28.2-7.5,32.5c-0.1,0.4,0,0.7,0.3,0.7c1.1,0,3.7-0.5,6.7-1.3c0.3,1.7,0.5,3.5,0.7,5.3c-4,1.2-8.7,2-13.9,2
	c-0.6,0-3.1-2-3.7-3.4c2-9.3,4.9-21.7,6.9-31l-7.7,0.3c-0.1-1.9-0.1-3.6-0.1-5.4c7.3-1,14-2.4,15.1-2.4
	C172.3,330.4,174.3,332.2,174.9,333.3z M146.9,350.2c-5,2.6-11.6,3.6-20.1,3.6c-0.5,1.8-0.9,4.3-0.9,5.6c0,4,2.3,6.5,6.2,6.5
	c3.6,0,9.5-1.6,15-4.4c0.6,1.6,1.1,3.2,1.7,4.9c-5.7,3.2-13,6.1-20.7,6.1c-5.7,0-12.2-4.3-12.2-12.1c0-6.3,2.9-16,9.5-22.7
	c5.3-5.4,10.4-7.3,15.4-7.3c7.6,0,11.8,5.7,11.5,10.6C152,344.6,149.6,348.6,146.9,350.2z M138.1,335.9c-2.4,0-4.4,1.1-6.1,3.3
	c-1.5,1.9-3.1,4.7-4.3,9.4c4.4,0.1,8.7-0.5,11.8-2.1c1.9-0.9,3.3-2.3,3.3-4.7C142.7,339,141.2,335.9,138.1,335.9z M111.9,340.6
	c-3.8,0-12.1,9.5-14,16.8c-0.8,3-2.4,10.3-3.3,14.1c-3.1,0-6.1,0-9.2,0c1.7-7.7,5.3-24,7.3-33.9l-7.1,0.6c-0.1-1.8-0.2-3.6-0.1-5.3
	c7.3-1,12.8-2.6,13.5-2.6c0.6,0,2.6,1.7,3.1,2.7c-0.5,2.3-1.3,6.1-2.5,11.1l0.8,0.2c5.9-8.9,11-14.1,14.4-14.1
	c2.3,0,4.2,0.9,5.1,1.4c0,3.3-2.4,9-3.6,9.9C115.6,341.4,113.1,340.6,111.9,340.6z M77.1,322.9c-3.6,0-6-2.9-6-5.8
	c0-2.9,2.6-5.9,6.5-5.9c4.1,0,5.7,3.1,5.7,5.5C83.3,320.2,80.3,322.9,77.1,322.9z M79.8,333.3c-2,8.8-6.6,28.2-7.5,32.5
	c-0.1,0.4,0,0.7,0.3,0.7c1.1,0,3.7-0.5,6.7-1.3c0.3,1.7,0.5,3.5,0.7,5.3c-4,1.2-8.7,2-13.9,2c-0.6,0-3.1-2-3.7-3.4
	c2-9.3,4.9-21.7,6.9-31l-7.7,0.3c-0.1-1.9-0.1-3.6-0.1-5.4c7.3-1,14-2.4,15.1-2.4C77.2,330.4,79.2,332.2,79.8,333.3z M40.1,347.2
	v0.5c3.6,1.5,5.8,5.5,7.1,10.1c0.9,3.3,1.6,5.8,2.4,7.5c0.2,0.5,0.7,0.8,1.2,0.7c1.3-0.1,3.3-0.4,5.6-0.9c0.2,1.6,0.3,3.4,0.4,5.1
	c-3.5,1.2-10,1.9-14.7,1.9c-1.2-2.1-2.5-6.3-3.6-10.6c-1.5-5.9-2.9-8.8-4.7-8.8c-0.6,0-1.2,0.3-1.7,0.9c-1.4,1.2-3.1,2.8-4.6,4.6
	c-1,4.1-2.3,9.7-3.2,13.3c-3.1,0-6.1,0-9.2,0c2-8.7,10.5-46.3,13.1-58.3l-7.8,0.4c-0.1-1.9-0.2-3.6-0.2-5.4
	c7.1-0.8,14.8-2.6,15.5-2.6c0.7,0,2.5,1.6,3.3,2.8c-1.8,7.5-6.6,27.3-10.1,41.6l0.6,0.2c10.3-12.4,19.6-20,24.6-20
	c1.3,0,3.9,3.6,4.2,7.2C51.2,338.4,45.9,342,40.1,347.2z M254.8,385.5l-4.4,0.6l-0.2-1.4l4.4-0.6l-0.3-2.7l1.9-0.1
	c0,0.1-0.1,0.3-0.4,0.3l0.2,2.3l4.2-0.6l0.2,1.4l-4.2,0.5l0.3,2.9l5.3-0.7l0.2,1.4l-5.3,0.7l0.5,4.4l-1.5,0.2l-0.5-4.4l-5.3,0.7
	l-0.2-1.3l5.3-0.7L254.8,385.5z M296,382.5c-0.1,0.1-0.2,0.1-0.3,0.1c0,0-0.1,0-0.1,0c-1.1,1.1-2.6,2.4-4,3.4
	c0.1,0.1,0.3,0.1,0.4,0.2c0,0.1-0.2,0.2-0.3,0.2v7.7H290v-7.1c-1.4,1-3.4,2.1-5.2,3c-0.2-0.3-0.6-0.8-0.9-1.1
	c3.9-1.8,8.2-4.8,10.5-7.4L296,382.5z M305.6,383.7c0,0.1-0.2,0.2-0.4,0.2c-0.6,3.5-1.7,7.1-3.4,9.3c-0.4-0.3-0.9-0.5-1.4-0.7
	c1.6-2,2.8-5.5,3.3-9.2L305.6,383.7z M312.5,383.9c-0.9,0-1.6-0.7-1.6-1.6c0-0.9,0.7-1.6,1.6-1.6c0.9,0,1.6,0.7,1.6,1.6
	C314.1,383.2,313.4,383.9,312.5,383.9z M312.5,381.4c-0.5,0-0.9,0.4-0.9,0.9c0,0.5,0.4,0.9,0.9,0.9c0.5,0,0.9-0.4,0.9-0.9
	C313.4,381.8,313,381.4,312.5,381.4z M313.8,392.5l-1.5,0.6c-0.7-2.4-2.3-6.5-3.7-9.3l1.4-0.7C311.4,385.9,313.1,389.9,313.8,392.5z
	 M320.6,383.7v-1.4h7.6l0.3-0.1l1.2,0.6c-0.1,0.1-0.1,0.2-0.2,0.2c-0.8,1.9-1.6,3.3-2.8,4.9c1.5,1.2,3.8,3.3,5.1,4.7l-1.3,1.1
	c-1.2-1.4-3.4-3.6-4.7-4.7c-1.3,1.6-3.4,3.5-5.4,4.7c-0.2-0.3-0.7-0.8-1.1-1.1c3.8-2.1,6.9-5.9,8.2-8.9H320.6z"/>
<path class="st2" d="M293.6,195.6l-0.3,0.5L267,241.5l-0.1,0.2c-1.1,1.6-3,2.7-5.1,2.7c-2.5,0-4.7-1.5-5.7-3.7
	c0-0.1-0.1-0.2-0.1-0.3l-27.3-78.8l-0.1-0.3c-0.2-0.7-0.4-1.4-0.4-2.1c0-3.4,2.8-6.2,6.2-6.2c0.3,0,0.7,0,1,0.1l0.5,0.1l42,8.1
	l0.5,0.1c1.5,0.4,2.8,1.3,3.7,2.5l0.1,0.2l11.3,19.5l0.3,0.5c0.9,1.7,1.4,3.7,1.4,5.8C295,192,294.5,193.9,293.6,195.6z
	 M260.4,145.3c-0.3,0-0.7,0-1-0.1l-0.5-0.1l-81.9-15.7l-0.5-0.1c-2.7-0.7-4.8-3.1-4.8-6c0-1.6,0.6-3.1,1.7-4.2l0.2-0.2l28.1-32.4
	l0.2-0.2c1.1-1.1,2.5-1.7,4.1-1.8c0.1,0,0.2,0,0.2,0c0.1,0,0.2,0,0.2,0h21.9c0.1,0,0.2,0,0.4,0s0.2,0,0.4,0
	c4.4,0.1,8.2,2.5,10.3,6.1l0.3,0.5l25.8,44.5l0.1,0.2c0.6,0.9,1,2.1,1,3.3C266.6,142.5,263.8,145.3,260.4,145.3z M178,95.1
	l-54.7,63.1l-0.2,0.2c-1.1,1.1-2.7,1.8-4.4,1.8c-2.5,0-4.7-1.5-5.7-3.7l-0.1-0.3l-14-40.4l-0.1-0.3c-0.2-0.7-0.4-1.4-0.4-2.1
	c0-1.2,0.4-2.3,0.9-3.2l0.1-0.3l10.8-18.6l0.3-0.5c2.1-3.6,5.9-6,10.3-6.1c0.1,0,0.2,0,0.4,0c0.1,0,0.2,0,0.4,0h51.8
	c0.1,0,0.2,0,0.2,0c0.1,0,0.2,0,0.2,0c3.3,0.1,6,2.8,6,6.2c0,1.6-0.6,3.1-1.7,4.2L178,95.1z M121.5,218.4c0.3,0.7,0.4,1.4,0.4,2.2
	c0,3.4-2.8,6.2-6.2,6.2c-0.3,0-0.7,0-1-0.1l-0.5-0.1l-42-8.1l-0.4-0.1c-1.5-0.4-2.8-1.3-3.7-2.5l-0.1-0.2l-11.3-19.5l-0.3-0.5
	c-0.9-1.7-1.4-3.7-1.4-5.8s0.5-4,1.4-5.8l0.3-0.5L83,138.2l0.1-0.3c1.1-1.6,3-2.7,5.1-2.7c2.5,0,4.7,1.5,5.7,3.7l0.1,0.3l27.3,78.8
	L121.5,218.4z M148.5,222.2c-0.1,3.3-2.8,6-6.2,6c-2.5,0-4.7-1.5-5.7-3.7l-0.1-0.3l-14.2-40.8l-0.1-0.3c-0.2-0.7-0.4-1.4-0.4-2.1
	c0-1.6,0.6-3.1,1.7-4.2l0.2-0.2l14.1-16.3l0.1-0.2c1.1-1.1,2.7-1.8,4.4-1.8c3.3,0,6,2.6,6.2,5.9c0,0.1,0,0.2,0,0.2
	c0,0.1,0,0.2,0,0.2v57c0,0.1,0,0.2,0,0.2S148.5,222.1,148.5,222.2z M89.6,234.5c0.3,0,0.7,0,1,0.1l0.4,0.1l81.9,15.7l0.5,0.1
	c2.7,0.7,4.8,3.1,4.8,6c0,1.6-0.7,3.1-1.7,4.2l-0.1,0.2l-28.1,32.4l-0.2,0.2c-1.1,1.1-2.5,1.7-4.1,1.8c-0.1,0-0.2,0-0.2,0
	c-0.1,0-0.2,0-0.2,0h-21.9c-0.1,0-0.2,0-0.4,0c-0.1,0-0.2,0-0.4,0c-4.4-0.1-8.2-2.5-10.3-6.1l-0.3-0.5l-25.8-44.5l-0.1-0.2
	c-0.6-0.9-0.9-2.1-0.9-3.3C83.4,237.3,86.2,234.5,89.6,234.5z M206.6,162.9c1.1-1.1,2.7-1.8,4.4-1.8c2.5,0,4.7,1.5,5.7,3.7l0.1,0.3
	l10.9,31.3l0.1,0.3c0.2,0.7,0.4,1.4,0.4,2.1c0,1.6-0.6,3.1-1.7,4.2l-0.2,0.2l-12.5,14.4l-0.1,0.1c-1.1,1.1-2.7,1.8-4.4,1.8
	c-2.1,0-3.9-1-5-2.6l-0.2-0.2l-18.1-23c0-0.1-0.1-0.1-0.2-0.2c-0.7-1-1-2.2-1-3.4c0-1.6,0.6-3.1,1.7-4.2l0.2-0.2l19.8-22.8
	L206.6,162.9z M160.9,146c0.1-3.3,2.8-6,6.2-6c0.3,0,0.7,0,1,0.1l0.5,0.1l24.8,4.8l0.5,0.1c2.7,0.7,4.8,3.1,4.8,6
	c0,1.6-0.6,3.1-1.7,4.2l-0.2,0.2l-25.1,28.9l-0.2,0.2c-1.1,1.1-2.7,1.8-4.4,1.8c-3.3,0-6.1-2.7-6.2-6c0-0.1,0-0.2,0-0.2
	c0-0.1,0-0.2,0-0.2v-33.5c0-0.1,0-0.2,0-0.2C160.8,146.2,160.9,146.1,160.9,146z M160.8,217.9c0-0.1,0-0.2,0-0.2
	c0.1-1.5,0.7-2.9,1.6-4l0.2-0.2l7.3-8.5l0.2-0.2c1.1-1.1,2.7-1.8,4.4-1.8c2.1,0,3.9,1,5,2.6l0.1,0.2l18.1,23l0.1,0.2
	c0.7,1,1,2.2,1,3.4c0,1.6-0.6,3.1-1.7,4.2l-0.2,0.2l-2,2.3l-0.2,0.2c-1.1,1.1-2.7,1.8-4.4,1.8c-0.3,0-0.7,0-1-0.1l-0.5-0.1
	l-23.2-4.4l-0.4-0.1c-2.6-0.6-4.6-3-4.7-5.8c0-0.1,0-0.2,0-0.2c0-0.1,0-0.2,0-0.2v-12.1C160.9,218,160.8,218,160.8,217.9z
	 M172,284.7l54.7-63.1l0.1-0.2c1.1-1.1,2.7-1.8,4.4-1.8c2.5,0,4.7,1.5,5.7,3.7l0.1,0.3l14,40.4l0.1,0.3c0.2,0.7,0.4,1.4,0.4,2.1
	c0,1.2-0.4,2.3-0.9,3.2l-0.1,0.3l-10.8,18.6l-0.3,0.5c-2.1,3.6-5.9,6-10.3,6.1c-0.1,0-0.2,0-0.4,0c-0.1,0-0.2,0-0.4,0h-51.8
	c-0.1,0-0.2,0-0.2,0c-0.1,0-0.2,0-0.2,0c-3.3-0.1-6-2.8-6-6.2c0-1.6,0.6-3.1,1.7-4.2L172,284.7z"/>
</svg>
